
<?xml version="1.0" encoding="utf-8"?>
<!-- Svg Vector Icons : http://www.onlinewebfonts.com/icon -->
<!DOCTYPE svg PUBLIC "-//W3C//DTD SVG 1.1//EN" "http://www.w3.org/Graphics/SVG/1.1/DTD/svg11.dtd">
<svg version="1.1" xmlns="http://www.w3.org/2000/svg" xmlns:xlink="http://www.w3.org/1999/xlink" x="0px" y="0px" viewBox="0 0 1000 1000" enable-background="new 0 0 1000 1000" xml:space="preserve">
<metadata> Svg Vector Icons : http://www.onlinewebfonts.com/icon </metadata>
<g><path d="M978.4,352.6L527.4,803.1c-7.7,7.7-16.8,11.6-27.4,11.6s-19.6-3.9-27.4-11.6L21.6,352.6c-7.7-7.7-11.6-16.9-11.6-27.7s3.9-20,11.6-27.7L122.5,197c7.7-7.7,16.8-11.6,27.4-11.6c10.5,0,19.6,3.9,27.4,11.6L500,519.8L822.8,197c7.7-7.7,16.8-11.6,27.4-11.6c10.5,0,19.6,3.9,27.4,11.6l100.9,100.3c7.7,7.7,11.6,16.9,11.6,27.7S986.1,344.9,978.4,352.6L978.4,352.6z"/></g>
</svg>